<svg xmlns="http://www.w3.org/2000/svg" width="32" height="32" viewBox="0 0 32 32" fill="none">
  <rect x="0" y="0" width="32" height="32" rx="7" fill="#1D1D1F"></rect>
  <path d="M5 8.5a2 2 0 0 1 2-2h18a2 2 0 0 1 2 2v11a2 2 0 0 1-2 2H14l-4 4v-4H7a2 2 0 0 1-2-2z" stroke="#F5F5F7" stroke-width="1.8" stroke-linejoin="round" fill="none"></path>
  <rect x="10" y="9.5" width="3" height="5.5" rx="1.5" stroke="#F5F5F7" stroke-width="1.4" fill="none"></rect>
  <path d="M8.5 14v0.5a3 3 0 0 0 6 0V14" stroke="#F5F5F7" stroke-width="1.4" stroke-linecap="round" fill="none"></path>
  <line x1="17" y1="11.5" x2="22" y2="11.5" stroke="#F5F5F7" stroke-width="1.4" stroke-linecap="round"></line>
  <line x1="17" y1="14" x2="22" y2="14" stroke="#F5F5F7" stroke-width="1.4" stroke-linecap="round"></line>
  <line x1="17" y1="16.5" x2="20" y2="16.5" stroke="#F5F5F7" stroke-width="1.4" stroke-linecap="round"></line>
  <circle cx="24" cy="22" r="3.5" stroke="#F5F5F7" stroke-width="1.6" fill="#1D1D1F"></circle>
  <line x1="26.5" y1="24.5" x2="28.5" y2="26.5" stroke="#F5F5F7" stroke-width="1.8" stroke-linecap="round"></line>
</svg>