<svg xmlns="http://www.w3.org/2000/svg" width="48" height="48" viewBox="0 0 64 64" fill="none" stroke="currentColor">
  <path d="M10 14a4 4 0 0 1 4-4h36a4 4 0 0 1 4 4v22a4 4 0 0 1-4 4H28l-8 8v-8h-6a4 4 0 0 1-4-4z" stroke-width="3" stroke-linejoin="round" fill="none"></path>
  <rect x="18" y="16" width="6" height="11" rx="3" stroke-width="2.2" fill="none"></rect>
  <path d="M15 25v1a6 6 0 0 0 12 0v-1" stroke-width="2.2" stroke-linecap="round" fill="none"></path>
  <line x1="21" y1="32" x2="21" y2="35" stroke-width="2.2" stroke-linecap="round"></line>
  <line x1="18" y1="35" x2="24" y2="35" stroke-width="2.2" stroke-linecap="round"></line>
  <path d="M30 14h9l5 5v17a2 2 0 0 1-2 2H30a2 2 0 0 1-2-2V16a2 2 0 0 1 2-2z" stroke-width="2.2" fill="none"></path>
  <polyline points="39,14 39,19 44,19" stroke-width="2.2" stroke-linejoin="round" fill="none"></polyline>
  <line x1="31.5" y1="23" x2="40.5" y2="23" stroke-width="2" stroke-linecap="round"></line>
  <line x1="31.5" y1="27" x2="40.5" y2="27" stroke-width="2" stroke-linecap="round"></line>
  <line x1="31.5" y1="31" x2="37.5" y2="31" stroke-width="2" stroke-linecap="round"></line>
  <circle cx="48" cy="42" r="7" stroke-width="2.6" fill="white"></circle>
  <line x1="53" y1="47" x2="57" y2="51" stroke-width="2.8" stroke-linecap="round"></line>
</svg>